<svg width="31" height="30" viewBox="0 0 31 30" fill="none" xmlns="http://www.w3.org/2000/svg">
<mask id="mask0_913_13238" style="mask-type:alpha" maskUnits="userSpaceOnUse" x="0" y="0" width="31" height="30">
<rect x="0.659668" width="30" height="30" fill="#C4C4C4"/>
</mask>
<g mask="url(#mask0_913_13238)">
<path d="M16.1539 5.2654C14.5836 5.5104 13.3481 6.43021 12.6945 7.84002C12.2242 8.863 12.1285 9.48624 12.1285 11.6053V13.1053H10.7774C10.0282 13.1053 9.37853 13.1225 9.32672 13.144C9.27092 13.1698 9.18723 13.23 9.14339 13.2816C9.05969 13.3761 9.05969 13.4062 9.05969 15.3576C9.05969 17.1714 9.06766 17.3477 9.13143 17.4293C9.26694 17.6142 9.31875 17.6185 10.7495 17.6185H12.1285V22.2605V26.9026L12.2441 27.0401L12.3597 27.182L14.2169 27.1949C15.855 27.2035 16.0901 27.1992 16.1977 27.139C16.4448 27.0015 16.4329 27.2164 16.4329 22.1961V17.6185H18.0271C19.1749 17.6185 19.6452 17.6056 19.7209 17.5669C19.9401 17.4594 19.9401 17.4422 19.9401 15.3447V13.4062L19.8245 13.2687L19.709 13.1268L18.0669 13.1139L16.4289 13.101L16.4409 11.7127L16.4528 10.3287L16.5724 10.0751C16.7039 9.80001 16.9231 9.61519 17.218 9.52922C17.3017 9.50343 17.8916 9.47764 18.5253 9.46905C19.163 9.45615 19.7249 9.43896 19.7727 9.42607C19.8245 9.41317 19.9122 9.353 19.964 9.29282L20.0597 9.18107V7.32424C20.0597 5.5018 20.0597 5.46741 19.976 5.37285C19.9322 5.32127 19.8485 5.2611 19.7927 5.23531C19.6332 5.17084 16.6003 5.19662 16.1539 5.2654Z" fill="#00730C"/>
</g>
</svg>
