<svg width="31" height="32" viewBox="0 0 31 32" fill="none" xmlns="http://www.w3.org/2000/svg">
<mask id="mask0_913_13250" style="mask-type:alpha" maskUnits="userSpaceOnUse" x="0" y="1" width="31" height="31">
<rect x="0.859619" y="1.2002" width="30" height="30" fill="#C4C4C4"/>
</mask>
<g mask="url(#mask0_913_13250)">
<path d="M27.2925 15.7403V12.5078H25.6089V15.7403H22.2417V17.3566H25.6089V20.5891H27.2925V17.3566H30.6597V15.7403H27.2925Z" fill="white"/>
<path d="M10.7882 15.5424V19.3424H16.1633C15.3786 21.554 13.2658 23.1424 10.7882 23.1424C7.64561 23.1424 5.08821 20.585 5.08821 17.4424C5.08821 14.2998 7.64561 11.7424 10.7882 11.7424C12.1505 11.7424 13.4615 12.2307 14.4799 13.118L16.9765 10.2528C15.2665 8.76318 13.0701 7.94238 10.7882 7.94238C5.54991 7.94238 1.28821 12.2041 1.28821 17.4424C1.28821 22.6807 5.54991 26.9424 10.7882 26.9424C16.0265 26.9424 20.2882 22.6807 20.2882 17.4424V15.5424H10.7882Z" fill="white"/>
</g>
</svg>
