<svg width="31" height="30" viewBox="0 0 31 30" fill="none" xmlns="http://www.w3.org/2000/svg">
<mask id="mask0_913_13263" style="mask-type:alpha" maskUnits="userSpaceOnUse" x="3" y="4" width="25" height="25">
<rect x="3.42444" y="4.76465" width="24" height="24" fill="#C4C4C4"/>
</mask>
<g mask="url(#mask0_913_13263)">
<path d="M27.4244 9.32315C26.5319 9.71465 25.5809 9.97415 24.5894 10.1001C25.6094 9.49115 26.3879 8.53415 26.7539 7.38065C25.8029 7.94765 24.7529 8.34815 23.6339 8.57165C22.7309 7.61015 21.4439 7.01465 20.0399 7.01465C17.3159 7.01465 15.1229 9.22565 15.1229 11.9361C15.1229 12.3261 15.1559 12.7011 15.2369 13.0581C11.1464 12.8586 7.52694 10.8981 5.09544 7.91165C4.67094 8.64815 4.42194 9.49115 4.42194 10.3986C4.42194 12.1026 5.29944 13.6131 6.60744 14.4876C5.81694 14.4726 5.04144 14.2431 4.38444 13.8816C4.38444 13.8966 4.38444 13.9161 4.38444 13.9356C4.38444 16.3266 6.08994 18.3126 8.32644 18.7701C7.92594 18.8796 7.48944 18.9321 7.03644 18.9321C6.72144 18.9321 6.40344 18.9141 6.10494 18.8481C6.74244 20.7966 8.55144 22.2291 10.7024 22.2756C9.02844 23.5851 6.90294 24.3741 4.60194 24.3741C4.19844 24.3741 3.81144 24.3561 3.42444 24.3066C5.60394 25.7121 8.18694 26.5146 10.9724 26.5146C20.0264 26.5146 24.9764 19.0146 24.9764 12.5136C24.9764 12.2961 24.9689 12.0861 24.9584 11.8776C25.9349 11.1846 26.7554 10.3191 27.4244 9.32315Z" fill="white"/>
</g>
</svg>
