<svg width="31" height="30" viewBox="0 0 31 30" fill="none" xmlns="http://www.w3.org/2000/svg">
<path d="M26.7978 26.5308V26.5299H26.8033V18.4614C26.8033 14.5142 25.9535 11.4736 21.339 11.4736C19.1207 11.4736 17.632 12.691 17.0243 13.8451H16.9601V11.8421H12.5848V26.5299H17.1407V19.2571C17.1407 17.3421 17.5037 15.4905 19.8751 15.4905C22.2117 15.4905 22.2465 17.6758 22.2465 19.3799V26.5308H26.7978Z" fill="white"/>
<path d="M5.02368 11.8428H9.58502V26.5305H5.02368V11.8428Z" fill="white"/>
<path d="M7.3015 4.16504C5.84308 4.16504 4.65967 5.34846 4.65967 6.80687C4.65967 8.26529 5.84308 9.47346 7.3015 9.47346C8.75992 9.47346 9.94334 8.26529 9.94334 6.80687C9.94242 5.34846 8.759 4.16504 7.3015 4.16504V4.16504Z" fill="white"/>
</svg>
