<svg width="124" height="25" viewBox="0 0 124 25" fill="none" xmlns="http://www.w3.org/2000/svg">
<g clip-path="url(#clip0_913_12708)">
<path d="M88.1051 7.71171L81.5748 7.10604L78.9807 1.08245C78.7991 0.660669 78.2011 0.660669 78.0195 1.08245L75.4255 7.10599L68.8951 7.71171C68.4379 7.75409 68.2531 8.32284 68.5981 8.62592L73.5252 12.9543L72.0833 19.3523C71.9823 19.8003 72.4661 20.1517 72.861 19.9173L78.5001 16.5689L84.1393 19.9173C84.5342 20.1518 85.0179 19.8003 84.917 19.3523L83.475 12.9543L88.4022 8.62592C88.7472 8.32284 88.5624 7.75409 88.1051 7.71171Z" fill="#00730C"/>
<path d="M79.924 3.27288L78.9807 1.08245C78.7991 0.660669 78.2011 0.660669 78.0195 1.08245L75.4254 7.10599L68.8951 7.71171C68.4379 7.75409 68.2531 8.32284 68.5981 8.62592L73.5252 12.9543L72.0833 19.3523C71.9823 19.8003 72.4661 20.1517 72.861 19.9173L73.6115 19.4716C74.8419 11.5068 78.301 5.65999 79.924 3.27288Z" fill="#00730C"/>
</g>
<g clip-path="url(#clip1_913_12708)">
<path d="M22.1051 7.71171L15.5748 7.10604L12.9807 1.08245C12.7991 0.660669 12.2011 0.660669 12.0195 1.08245L9.42547 7.10599L2.89513 7.71171C2.43785 7.75409 2.25309 8.32284 2.59806 8.62592L7.52522 12.9543L6.08327 19.3523C5.98229 19.8003 6.46613 20.1517 6.86096 19.9173L12.5001 16.5689L18.1393 19.9173C18.5342 20.1518 19.0179 19.8003 18.917 19.3523L17.475 12.9543L22.4022 8.62592C22.7472 8.32284 22.5624 7.75409 22.1051 7.71171Z" fill="#00730C"/>
<path d="M13.924 3.27288L12.9807 1.08245C12.7991 0.660669 12.2011 0.660669 12.0195 1.08245L9.42542 7.10599L2.89513 7.71171C2.43785 7.75409 2.25309 8.32284 2.59806 8.62592L7.52522 12.9543L6.08327 19.3523C5.98229 19.8003 6.46613 20.1517 6.86096 19.9173L7.6115 19.4716C8.84192 11.5068 12.301 5.65999 13.924 3.27288Z" fill="#00730C"/>
</g>
<g clip-path="url(#clip2_913_12708)">
<path d="M121.105 7.71171L114.575 7.10604L111.981 1.08245C111.799 0.660669 111.201 0.660669 111.02 1.08245L108.425 7.10599L101.895 7.71171C101.438 7.75409 101.253 8.32284 101.598 8.62592L106.525 12.9543L105.083 19.3523C104.982 19.8003 105.466 20.1517 105.861 19.9173L111.5 16.5689L117.139 19.9173C117.534 20.1518 118.018 19.8003 117.917 19.3523L116.475 12.9543L121.402 8.62592C121.747 8.32284 121.562 7.75409 121.105 7.71171Z" fill="#00730C"/>
<path d="M112.924 3.27288L111.981 1.08245C111.799 0.660669 111.201 0.660669 111.019 1.08245L108.425 7.10599L101.895 7.71171C101.438 7.75409 101.253 8.32284 101.598 8.62592L106.525 12.9543L105.083 19.3523C104.982 19.8003 105.466 20.1517 105.861 19.9173L106.611 19.4716C107.842 11.5068 111.301 5.65999 112.924 3.27288Z" fill="#00730C"/>
</g>
<g clip-path="url(#clip3_913_12708)">
<path d="M55.1051 7.71171L48.5748 7.10604L45.9807 1.08245C45.7991 0.660669 45.2011 0.660669 45.0195 1.08245L42.4255 7.10599L35.8951 7.71171C35.4379 7.75409 35.2531 8.32284 35.5981 8.62592L40.5252 12.9543L39.0833 19.3523C38.9823 19.8003 39.4661 20.1517 39.861 19.9173L45.5001 16.5689L51.1393 19.9173C51.5342 20.1518 52.0179 19.8003 51.917 19.3523L50.475 12.9543L55.4022 8.62592C55.7472 8.32284 55.5624 7.75409 55.1051 7.71171Z" fill="#00730C"/>
<path d="M46.924 3.27288L45.9807 1.08245C45.7991 0.660669 45.2011 0.660669 45.0195 1.08245L42.4254 7.10599L35.8951 7.71171C35.4379 7.75409 35.2531 8.32284 35.5981 8.62592L40.5252 12.9543L39.0833 19.3523C38.9823 19.8003 39.4661 20.1517 39.861 19.9173L40.6115 19.4716C41.8419 11.5068 45.301 5.65999 46.924 3.27288Z" fill="#00730C"/>
</g>
<defs>
<clipPath id="clip0_913_12708">
<rect width="25" height="25" fill="white" transform="translate(66)"/>
</clipPath>
<clipPath id="clip1_913_12708">
<rect width="25" height="25" fill="white"/>
</clipPath>
<clipPath id="clip2_913_12708">
<rect width="25" height="25" fill="white" transform="translate(99)"/>
</clipPath>
<clipPath id="clip3_913_12708">
<rect width="25" height="25" fill="white" transform="translate(33)"/>
</clipPath>
</defs>
</svg>
